HIERARCHY
ROOT Pelvis
{
	OFFSET 0.000000 0.000000 0.000000
	CHANNELS 6 Xposition Yposition Zposition Xrotation Yrotation Zrotation
	JOINT LeftUpLeg_virtual
	{
		OFFSET 0.000000 0.000000 0.000000
		CHANNELS 3 Xrotation Yrotation Zrotation
		JOINT LeftUpLeg
		{
			OFFSET 18.735201 -5.666702 -4.541200
			CHANNELS 3 Xrotation Yrotation Zrotation
			JOINT LeftLeg
			{
				OFFSET -0.021200 -31.938179 0.493100
				CHANNELS 3 Xrotation Yrotation Zrotation
				JOINT LeftFoot
				{
					OFFSET 0.021200 -31.938179 -4.336299
					CHANNELS 3 Xrotation Yrotation Zrotation
					JOINT LeftToeBase
					{
						OFFSET 0.943001 -26.722000 15.023500
						CHANNELS 3 Xrotation Yrotation Zrotation
						End Site
						{
							OFFSET 0 0 0
						}
					}
				}
			}
		}
	}
	JOINT RightUpLeg_virtual
	{
		OFFSET 0.000000 0.000000 0.000000
		CHANNELS 3 Xrotation Yrotation Zrotation
		JOINT RightUpLeg
		{
			OFFSET -18.735201 -5.666702 -4.541200
			CHANNELS 3 Xrotation Yrotation Zrotation
			JOINT RightLeg
			{
				OFFSET 0.018946 -31.938133 0.493100
				CHANNELS 3 Xrotation Yrotation Zrotation
				JOINT RightFoot
				{
					OFFSET -0.018946 -31.938126 -4.336299
					CHANNELS 3 Xrotation Yrotation Zrotation
					JOINT RightToeBase
					{
						OFFSET -0.943001 -26.722004 15.023500
						CHANNELS 3 Xrotation Yrotation Zrotation
						End Site
						{
							OFFSET 0 0 0
						}
					}
				}
			}
		}
	}
	JOINT Hips_virtual
	{
		OFFSET 0.000000 0.000000 0.000000
		CHANNELS 3 Xrotation Yrotation Zrotation
		JOINT Hips
		{
			OFFSET -0.000000 -0.000000 -0.000000
			CHANNELS 3 Xrotation Yrotation Zrotation
			JOINT Spine
			{
				OFFSET 0.000000 10.199997 -0.299500
				CHANNELS 3 Xrotation Yrotation Zrotation
				JOINT Spine1
				{
					OFFSET 0.000000 11.900002 -1.516600
					CHANNELS 3 Xrotation Yrotation Zrotation
					JOINT Spine2
					{
						OFFSET 0.000000 13.600006 -2.842500
						CHANNELS 3 Xrotation Yrotation Zrotation
						JOINT Neck_virtual
						{
							OFFSET 0.000000 0.000000 0.000000
							CHANNELS 3 Xrotation Yrotation Zrotation
							JOINT Neck
							{
								OFFSET 0.000000 9.624100 -2.890100
								CHANNELS 3 Xrotation Yrotation Zrotation
								JOINT Head
								{
									OFFSET 0.000000 14.068802 -1.351900
									CHANNELS 3 Xrotation Yrotation Zrotation
									End Site
									{
										OFFSET 0 0 0
									}
								}
							}
						}
						JOINT LeftShoulder_virtual
						{
							OFFSET 0.000000 0.000000 0.000000
							CHANNELS 3 Xrotation Yrotation Zrotation
							JOINT LeftShoulder
							{
								OFFSET 15.263000 10.923401 -0.547700
								CHANNELS 3 Xrotation Yrotation Zrotation
								JOINT LeftArm
								{
									OFFSET 25.438599 -2.830597 -13.032500
									CHANNELS 3 Xrotation Yrotation Zrotation
									JOINT LeftForeArm
									{
										OFFSET 29.960503 0.000000 0.000000
										CHANNELS 3 Xrotation Yrotation Zrotation
										JOINT LeftHand
										{
											OFFSET 27.849251 0.000000 0.000000
											CHANNELS 3 Xrotation Yrotation Zrotation
											End Site
											{
												OFFSET 0 0 0
											}
										}
									}
								}
							}
						}
						JOINT RightShoulder_virtual
						{
							OFFSET 0.000000 0.000000 0.000000
							CHANNELS 3 Xrotation Yrotation Zrotation
							JOINT RightShoulder
							{
								OFFSET -15.263000 10.923401 -0.547700
								CHANNELS 3 Xrotation Yrotation Zrotation
								JOINT RightArm
								{
									OFFSET -25.438599 -2.830597 -13.032500
									CHANNELS 3 Xrotation Yrotation Zrotation
									JOINT RightForeArm
									{
										OFFSET -29.960503 0.000000 0.000000
										CHANNELS 3 Xrotation Yrotation Zrotation
										JOINT RightHand
										{
											OFFSET -27.849251 0.000000 0.000000
											CHANNELS 3 Xrotation Yrotation Zrotation
											End Site
											{
												OFFSET 0 0 0
											}
										}
									}
								}
							}
						}
					}
				}
			}
		}
	}
}
MOTION
Frames: 13
Frame Time: 0.03333333
-0.307303 94.503052 2.508650 0.000000 0.000000 0.000000 14.941529 -7.393282 -1.567405 -21.130252 11.363941 13.420267 29.457458 2.775247 -0.797570 -17.056610 3.552545 -5.012190 0.000000 0.000000 0.000000 7.961751 1.467449 2.714146 -19.920819 -5.525518 -11.843790 30.713875 -1.924136 -1.196570 -18.626305 -5.275758 7.604173 0.000000 0.000000 0.000000 0.409863 -0.571434 1.864547 -1.532775 14.559185 4.898372 7.383954 -0.608703 3.082166 2.395123 -0.640256 2.317858 0.000000 0.000000 0.000000 2.935527 -0.671329 1.542586 -0.046398 -0.101799 0.560618 0.000000 0.000000 0.000000 3.007619 -0.386644 0.326064 0.806996 -2.582690 -8.966072 -12.017166 -11.399089 -41.943666 2.128041 -47.830254 -0.622230 0.000000 0.000000 0.000000 4.120219 0.745771 1.545038 2.001975 12.554604 8.505754 -23.286190 29.323594 56.201136 -38.091306 87.172707 40.064670 0.000000 0.000000 0.000000 
-0.270152 94.501595 2.483402 0.000000 0.000000 0.000000 14.948883 -7.460559 -1.565163 -21.120675 11.349999 13.410502 29.340034 2.807193 -0.812327 -17.146480 3.596075 -5.019203 0.000000 0.000000 0.000000 8.016442 1.764505 2.681499 -19.814756 -5.449308 -11.833740 30.720401 -2.038827 -1.199970 -18.613377 -5.382154 7.525494 0.000000 0.000000 0.000000 0.357420 -0.755113 1.865056 -1.400771 14.550142 4.901335 7.395812 -0.705969 3.043122 2.417303 -0.695600 2.286075 0.000000 0.000000 0.000000 2.981633 -0.714374 1.501481 -0.023609 -0.095755 0.537053 0.000000 0.000000 0.000000 3.020893 -0.440552 0.329037 0.845266 -2.553175 -8.964889 -11.997833 -11.334211 -41.938014 2.110631 -47.740734 -0.621266 0.000000 0.000000 0.000000 4.180108 0.729961 1.550748 2.077738 12.570471 8.551962 -22.241213 30.322536 56.119396 -44.830578 88.019295 47.088410 0.000000 0.000000 0.000000 
-0.220227 94.499184 2.456264 0.000000 0.000000 0.000000 14.956902 -7.515145 -1.567717 -21.104018 11.339753 13.395111 29.210790 2.835835 -0.825852 -17.246489 3.636150 -5.026991 0.000000 0.000000 0.000000 8.070052 2.070761 2.649661 -19.705982 -5.370454 -11.819701 30.723625 -2.154321 -1.201023 -18.600156 -5.490564 7.449097 0.000000 0.000000 0.000000 0.308806 -0.924491 1.862049 -1.269321 14.537983 4.885344 7.416528 -0.808494 2.995574 2.444886 -0.753072 2.250768 0.000000 0.000000 0.000000 3.028692 -0.756323 1.457747 0.002251 -0.092765 0.514524 0.000000 0.000000 0.000000 3.039166 -0.493340 0.331273 0.883760 -2.544938 -8.938784 -11.999393 -11.307396 -41.926245 2.097103 -47.674516 -0.625224 0.000000 0.000000 0.000000 4.242889 0.716214 1.551631 2.158349 12.616445 8.554836 -21.242744 31.427364 55.919903 -60.702049 88.806133 63.215914 0.000000 0.000000 0.000000 
-0.157135 94.493210 2.430552 0.000000 0.000000 0.000000 14.963478 -7.570518 -1.574466 -21.083064 11.329493 13.372611 29.074698 2.863769 -0.835851 -17.353627 3.673952 -5.030405 0.000000 0.000000 0.000000 8.119954 2.368727 2.620521 -19.599535 -5.293514 -11.802149 30.711819 -2.273325 -1.201331 -18.595964 -5.603445 7.370548 0.000000 0.000000 0.000000 0.263892 -1.080139 1.856998 -1.142221 14.517707 4.861466 7.441154 -0.911141 2.940869 2.475307 -0.809763 2.212770 0.000000 0.000000 0.000000 3.072960 -0.795835 1.412906 0.029678 -0.092351 0.493918 0.000000 0.000000 0.000000 3.060367 -0.542294 0.333958 0.923217 -2.556289 -8.886567 -12.026107 -11.315636 -41.910533 2.084728 -47.630215 -0.635357 0.000000 0.000000 0.000000 4.305944 0.708052 1.548772 2.242298 12.700043 8.517130 -20.306660 32.624863 55.594308 -108.250985 89.282628 110.984843 0.000000 0.000000 0.000000 
-0.075796 94.487991 2.404789 0.000000 0.000000 0.000000 14.966398 -7.615950 -1.586046 -21.063368 11.321643 13.345646 28.933641 2.899340 -0.841221 -17.466435 3.717123 -5.022882 0.000000 0.000000 0.000000 8.174970 2.679471 2.594649 -19.484131 -5.214642 -11.778557 30.692599 -2.387214 -1.202206 -18.597080 -5.711502 7.293525 0.000000 0.000000 0.000000 0.218768 -1.217475 1.848356 -1.036512 14.493865 4.827145 7.469949 -1.016210 2.880373 2.508609 -0.867073 2.172950 0.000000 0.000000 0.000000 3.115965 -0.834547 1.367828 0.059450 -0.096079 0.476090 0.000000 0.000000 0.000000 3.085345 -0.588114 0.336918 0.963588 -2.584991 -8.811092 -12.076658 -11.362196 -41.889519 2.074120 -47.610233 -0.649715 0.000000 0.000000 0.000000 4.343241 0.697468 1.544661 2.300629 12.793301 8.449956 -19.505635 33.779920 55.147217 -159.863173 88.990897 162.755922 0.000000 0.000000 0.000000 
0.016212 94.477470 2.380846 0.000000 0.000000 0.000000 14.965462 -7.654243 -1.602971 -21.043352 11.315454 13.312402 28.783804 2.944533 -0.844037 -17.587047 3.768835 -5.006507 0.000000 0.000000 0.000000 8.233159 2.989571 2.567127 -19.361884 -5.135907 -11.755194 30.672494 -2.490539 -1.205338 -18.597639 -5.808199 7.218742 0.000000 0.000000 0.000000 0.172751 -1.336791 1.836928 -0.951593 14.460460 4.789797 7.539810 -1.116816 2.820379 2.564882 -0.921193 2.134836 0.000000 0.000000 0.000000 3.165244 -0.869195 1.320899 0.095131 -0.102263 0.460062 0.000000 0.000000 0.000000 3.120895 -0.628051 0.338368 1.006145 -2.629743 -8.716658 -12.147802 -11.447657 -41.867752 2.065445 -47.614980 -0.669673 0.000000 0.000000 0.000000 4.387616 0.694677 1.537996 2.359774 12.929209 8.351800 -18.794515 34.985714 54.552444 -179.560127 88.376589 -177.441143 0.000000 0.000000 0.000000 
0.112754 94.461792 2.361328 0.000000 0.000000 0.000000 14.967074 -7.704249 -1.622090 -21.013647 11.307019 13.271629 28.636866 2.992836 -0.848665 -17.707590 3.824380 -4.991659 0.000000 0.000000 0.000000 8.302921 3.280157 2.546338 -19.224833 -5.065649 -11.726438 30.644241 -2.592641 -1.210003 -18.603473 -5.903310 7.141589 0.000000 0.000000 0.000000 0.129804 -1.436937 1.823485 -0.878900 14.411918 4.751239 7.606456 -1.201044 2.753028 2.620167 -0.965523 2.094158 0.000000 0.000000 0.000000 3.207471 -0.895521 1.274640 0.130488 -0.108617 0.447283 0.000000 0.000000 0.000000 3.152862 -0.658430 0.339258 1.048334 -2.689216 -8.605971 -12.243500 -11.568332 -41.851366 2.057016 -47.647915 -0.696560 0.000000 0.000000 0.000000 4.427992 0.704858 1.530624 2.418833 13.114481 8.228432 -18.166768 36.241889 53.794768 171.673253 87.735317 -168.625308 0.000000 0.000000 0.000000 
0.221749 94.444534 2.337826 0.000000 0.000000 0.000000 14.960488 -7.745074 -1.647856 -20.991383 11.300344 13.224965 28.471410 3.064326 -0.845490 -17.842703 3.899521 -4.952098 0.000000 0.000000 0.000000 8.372904 3.583558 2.527144 -19.081756 -4.992063 -11.691778 30.609780 -2.672022 -1.215989 -18.609498 -5.976221 7.075363 0.000000 0.000000 0.000000 0.090425 -1.519532 1.807808 -0.820349 14.342195 4.712120 7.678762 -1.264256 2.674910 2.679852 -0.997590 2.048987 0.000000 0.000000 0.000000 3.248649 -0.910684 1.227580 0.167923 -0.113988 0.436998 0.000000 0.000000 0.000000 3.186885 -0.677625 0.336451 1.089520 -2.761687 -8.483740 -12.363893 -11.721440 -41.842442 2.047589 -47.710832 -0.729962 0.000000 0.000000 0.000000 4.468358 0.729771 1.521031 2.474656 13.348094 8.088191 -17.606445 37.527996 52.874164 166.408666 87.136657 -163.366322 0.000000 0.000000 0.000000 
0.329693 94.423943 2.312452 0.000000 0.000000 0.000000 14.957081 -7.788771 -1.676811 -20.961383 11.294194 13.172357 28.307101 3.149096 -0.843525 -17.979027 3.988244 -4.907319 0.000000 0.000000 0.000000 8.442975 3.867561 2.513208 -18.936785 -4.924495 -11.652416 30.577678 -2.738944 -1.223733 -18.611487 -6.036074 7.013515 0.000000 0.000000 0.000000 0.050460 -1.578419 1.788460 -0.782754 14.250705 4.667525 7.761262 -1.309801 2.588892 2.745670 -1.019298 2.000747 0.000000 0.000000 0.000000 3.290256 -0.917115 1.181034 0.207516 -0.120068 0.429544 0.000000 0.000000 0.000000 3.226030 -0.688395 0.331118 1.129224 -2.845977 -8.351125 -12.504257 -11.899474 -41.842767 2.035402 -47.796366 -0.771193 0.000000 0.000000 0.000000 4.518235 0.767370 1.508767 2.533425 13.634476 7.927193 -17.101662 38.832993 51.811131 162.572258 86.597510 -159.582070 0.000000 0.000000 0.000000 
0.441099 94.400635 2.290224 0.000000 0.000000 0.000000 14.949397 -7.832943 -1.711376 -20.932496 11.288009 13.112198 28.136044 3.252779 -0.838518 -18.121851 4.094210 -4.847575 0.000000 0.000000 0.000000 8.511467 4.139885 2.503414 -18.791109 -4.860346 -11.608352 30.542680 -2.788816 -1.234366 -18.612686 -6.078148 6.956905 0.000000 0.000000 0.000000 0.011995 -1.633245 1.769359 -0.758168 14.100486 4.638704 7.843635 -1.345896 2.497709 2.812085 -1.034471 1.950577 0.000000 0.000000 0.000000 3.315122 -0.909888 1.142087 0.241095 -0.123705 0.428718 0.000000 0.000000 0.000000 3.265848 -0.694464 0.323488 1.167048 -2.941764 -8.209334 -12.669085 -12.101956 -41.856072 2.018587 -47.905823 -0.820929 0.000000 0.000000 0.000000 4.601050 0.822691 1.485064 2.627255 14.008843 7.709361 -16.624187 40.150642 50.610302 159.281323 86.129348 -156.381525 0.000000 0.000000 0.000000 
0.558558 94.384743 2.263359 0.000000 0.000000 0.000000 14.937772 -7.881678 -1.748853 -20.905223 11.280267 13.047032 27.963095 3.375364 -0.829566 -18.267392 4.216722 -4.771422 0.000000 0.000000 0.000000 8.580989 4.404634 2.498720 -18.641938 -4.799209 -11.558474 30.514574 -2.820764 -1.247832 -18.606538 -6.101083 6.906514 0.000000 0.000000 0.000000 -0.021138 -1.682297 1.751079 -0.740774 13.905189 4.625980 7.929358 -1.365506 2.404247 2.880908 -1.039806 1.900056 0.000000 0.000000 0.000000 3.338916 -0.893116 1.105893 0.275692 -0.127602 0.431225 0.000000 0.000000 0.000000 3.306394 -0.692712 0.315079 1.201558 -3.047804 -8.062870 -12.849528 -12.323003 -41.879448 1.999055 -48.031345 -0.877272 0.000000 0.000000 0.000000 4.683834 0.885372 1.463399 2.716516 14.413557 7.488912 -16.143710 41.484100 49.286249 156.240113 85.714721 -153.457644 0.000000 0.000000 0.000000 
0.675492 94.370102 2.231405 0.000000 0.000000 0.000000 14.930520 -7.946996 -1.788077 -20.867642 11.269609 12.974399 27.797543 3.508794 -0.818512 -18.408360 4.348396 -4.686137 0.000000 0.000000 0.000000 8.652980 4.642953 2.499127 -18.489565 -4.746385 -11.505673 30.491976 -2.841365 -1.263681 -18.595409 -6.111525 6.859227 0.000000 0.000000 0.000000 -0.049419 -1.719464 1.731771 -0.731993 13.685431 4.618077 8.032098 -1.368573 2.294923 2.960160 -1.034984 1.841342 0.000000 0.000000 0.000000 3.361936 -0.867567 1.072955 0.310923 -0.131988 0.436876 0.000000 0.000000 0.000000 3.345413 -0.684496 0.308330 1.233147 -3.166524 -7.909706 -13.047256 -12.566943 -41.915064 1.975268 -48.178720 -0.941012 0.000000 0.000000 0.000000 4.764044 0.954296 1.444908 2.801969 14.843775 7.266429 -15.653813 42.818828 47.862896 153.375613 85.345618 -150.730705 0.000000 0.000000 0.000000 
0.793687 94.357475 2.193123 0.000000 0.000000 0.000000 14.929077 -8.015237 -1.830456 -20.818089 11.259887 12.895113 27.637966 3.650506 -0.809431 -18.545417 4.488818 -4.599464 0.000000 0.000000 0.000000 8.727308 4.853896 2.504050 -18.335404 -4.702040 -11.451288 30.473927 -2.852083 -1.280030 -18.580853 -6.111988 6.817386 0.000000 0.000000 0.000000 -0.072698 -1.747679 1.710254 -0.736448 13.443995 4.601784 8.135175 -1.362062 2.179505 3.040215 -1.023853 1.779344 0.000000 0.000000 0.000000 3.384669 -0.836805 1.040083 0.346690 -0.138533 0.443722 0.000000 0.000000 0.000000 3.384944 -0.676440 0.301315 1.262165 -3.310964 -7.749189 -13.259177 -12.842095 -41.962657 1.951169 -48.360659 -1.007988 0.000000 0.000000 0.000000 4.843028 1.025823 1.425794 2.885667 15.290398 7.040462 -15.136280 44.148338 46.358150 150.664465 85.007858 -148.168933 0.000000 0.000000 0.000000 
